# xmcd
#
# Track frame offsets:
#	150
#	16988
#	27574
#	45217
#	62496
#	79472
#	90197
#	104791
#	117267
#	144177
#	162423
#	177572
#	260349
#
# Disc length: 3616 seconds
#
# Revision: 3
# Processed by: cddbd v1.5PL3 Copyright (c) Steve Scherf et al.
# Submitted via: dBpowerAMP V4.0
#
DISCID=a60e1e0d
DTITLE=Varios - Classical Masterpieces for Festive Moments
DYEAR=1995
DGENRE=Classical
TTITLE0=Vivaldi · The Winter · Allegro non molto
TTITLE1=Vivaldi · The Winter · Largo
TTITLE2=Vivaldi · The Winter · Allegro
TTITLE3=Boccherini · Menuetto A - Major
TTITLE4=Händel · Concertto Groso op 6 ·2 in F major - Andante Larghetto
TTITLE5=Händel · Concertto Groso op 6 ·2 in F major - Allegro
TTITLE6=Händel · Concertto Groso op 6 ·2 in F major - Largo
TTITLE7=Händel · Concertto Groso op 6 ·2 in F major - Allegro ma non troppo
TTITLE8=Bach · The Brandenburg Concerto # 2 · Allegro
TTITLE9=Bach · The Brandenburg Concerto # 2 · Andante
TTITLE10=Bach · The Brandenburg Concerto # 2 · Allegro assai
TTITLE11=Händel · Water Music · Suite # 1
TTITLE12=Strauss · Champagner polka
EXTD=
EXTT0=
EXTT1=
EXTT2=
EXTT3=
EXTT4=
EXTT5=
EXTT6=
EXTT7=
EXTT8=
EXTT9=
EXTT10=
EXTT11=
EXTT12=
PLAYORDER=
